<?xml version="1.0" standalone="no"?>
<!DOCTYPE svg PUBLIC "-//W3C//DTD SVG 20010904//EN"
 "http://www.w3.org/TR/2001/REC-SVG-20010904/DTD/svg10.dtd">
<svg version="1.0" xmlns="http://www.w3.org/2000/svg"
 width="864.000000pt" height="864.000000pt" viewBox="0 0 864.000000 864.000000"
 preserveAspectRatio="xMidYMid meet">
<metadata>
Created by potrace 1.14, written by Peter Selinger 2001-2017
</metadata>
<g transform="translate(0.000000,864.000000) scale(0.100000,-0.100000)"
fill="#000000" stroke="none">
<path d="M6511 8571 c-1 -8 -4 -11 -8 -8 -3 4 -13 1 -21 -6 -13 -10 -14 -9 -7
3 7 12 6 13 -6 4 -8 -5 -30 -11 -49 -13 -19 -2 -38 -7 -41 -12 -3 -6 -18 -8
-32 -5 -15 3 -27 1 -27 -4 0 -6 -10 -6 -24 0 -16 6 -26 5 -28 -1 -2 -5 -13
-11 -26 -12 -12 0 -22 -4 -22 -7 0 -9 -32 -6 -49 5 -9 5 -12 4 -8 -2 5 -9 -34
-21 -75 -23 -5 0 -23 -9 -42 -19 -26 -15 -36 -17 -45 -8 -9 9 -11 8 -6 -4 3
-9 0 -16 -7 -17 -45 -5 -77 -16 -72 -23 3 -5 -9 -12 -26 -16 -18 -3 -34 -12
-37 -19 -3 -8 -9 -11 -14 -8 -5 3 -9 -2 -9 -11 0 -9 -4 -14 -9 -11 -5 3 -14
-1 -21 -9 -7 -8 -18 -15 -24 -15 -14 0 -52 -42 -48 -52 1 -5 -7 -8 -18 -8 -11
0 -20 -4 -20 -10 0 -5 -6 -10 -14 -10 -7 0 -19 -7 -26 -15 -7 -8 -21 -15 -31
-15 -11 0 -19 -5 -19 -11 0 -5 -4 -7 -10 -4 -5 3 -10 0 -10 -8 0 -7 -33 -30
-72 -51 -40 -20 -72 -40 -72 -44 3 -17 -10 -32 -28 -32 -10 0 -17 -4 -14 -8 7
-11 -30 -42 -40 -34 -4 4 -4 1 0 -6 4 -7 1 -15 -8 -18 -9 -3 -16 -12 -16 -20
0 -8 -5 -14 -12 -14 -6 0 -8 -3 -4 -7 3 -4 -4 -13 -16 -20 -13 -7 -17 -12 -10
-13 6 0 -7 -19 -30 -42 -24 -24 -42 -46 -41 -50 2 -5 -2 -7 -8 -5 -6 1 -16 -7
-22 -18 -7 -11 -21 -28 -32 -38 -11 -11 -19 -24 -17 -29 1 -5 -2 -7 -7 -4 -9
6 -71 -79 -71 -98 0 -6 -11 -20 -25 -30 -13 -10 -22 -23 -19 -28 3 -4 2 -7 -3
-6 -10 4 -47 -34 -51 -53 -2 -7 -9 -17 -15 -21 -7 -4 -7 -8 -2 -8 6 0 2 -5 -7
-11 -11 -6 -15 -16 -11 -26 5 -12 2 -15 -8 -11 -11 4 -15 -2 -17 -21 -1 -14
-10 -32 -19 -38 -9 -7 -13 -13 -9 -13 5 0 3 -6 -3 -13 -6 -8 -8 -17 -4 -20 3
-4 0 -7 -7 -7 -7 0 -10 -3 -7 -7 4 -3 0 -14 -8 -23 -9 -10 -17 -31 -18 -48 -1
-22 -5 -28 -14 -21 -8 8 -10 4 -6 -12 4 -15 2 -20 -5 -15 -7 4 -8 -3 -2 -24 6
-22 5 -28 -2 -24 -7 5 -9 1 -5 -9 4 -10 1 -17 -6 -17 -8 0 -6 -4 3 -10 13 -9
13 -10 0 -10 -11 -1 -10 -4 4 -15 11 -8 16 -15 10 -15 -5 0 -10 -20 -10 -45
-1 -30 2 -43 10 -39 6 3 4 -1 -5 -8 -11 -9 -14 -20 -8 -35 5 -15 3 -23 -7 -27
-8 -3 -14 -10 -14 -16 0 -6 4 -9 8 -6 4 2 8 -4 8 -14 0 -10 -4 -16 -8 -14 -4
3 -8 1 -8 -5 0 -5 5 -13 10 -16 6 -4 7 -13 1 -24 -6 -10 -6 -23 0 -32 13 -20
11 -31 -3 -23 -8 5 -7 0 2 -11 9 -11 10 -16 3 -11 -19 11 -16 -4 5 -27 9 -11
11 -17 5 -13 -15 8 -18 -10 -3 -19 5 -3 6 -13 3 -22 -5 -12 -3 -14 8 -8 12 8
12 6 0 -8 -7 -9 -9 -17 -4 -17 5 0 9 -9 10 -20 1 -12 -3 -18 -9 -14 -5 4 -2
-6 8 -22 14 -21 15 -26 4 -19 -12 7 -12 4 2 -16 10 -16 13 -31 8 -39 -5 -8 -4
-22 2 -33 7 -14 7 -17 -1 -13 -8 5 -8 0 -2 -17 5 -13 10 -51 12 -83 1 -32 6
-64 11 -71 6 -7 7 -17 3 -23 -3 -5 -2 -10 4 -10 6 0 8 -7 4 -15 -3 -9 2 -22
12 -29 12 -8 16 -20 12 -30 -4 -10 -3 -15 3 -11 6 3 10 0 10 -7 0 -24 25 -68
38 -68 7 0 10 -5 7 -10 -4 -6 -1 -17 5 -25 7 -8 9 -15 4 -15 -5 0 -1 -7 9 -14
10 -8 18 -17 18 -20 -3 -23 0 -36 7 -32 5 3 8 -5 7 -17 -1 -12 6 -28 16 -35
10 -7 16 -19 13 -27 -3 -8 -2 -20 2 -27 9 -13 10 -18 12 -51 1 -11 7 -16 15
-11 9 5 9 4 0 -6 -14 -15 -6 -43 10 -33 6 3 7 1 3 -6 -8 -13 13 -82 29 -93 6
-5 4 -8 -4 -8 -11 0 -10 -4 4 -13 10 -8 15 -19 11 -25 -4 -7 -2 -12 3 -12 6 0
11 -9 11 -20 0 -11 6 -20 13 -20 8 0 7 -4 -3 -10 -11 -7 -11 -10 -2 -10 7 0
10 -4 7 -10 -3 -5 1 -10 10 -10 11 0 15 -5 11 -16 -4 -10 -2 -13 6 -8 8 5 9 2
5 -9 -3 -10 -3 -17 2 -17 5 0 15 -20 22 -45 8 -27 19 -45 28 -45 8 0 11 -3 8
-6 -9 -9 33 -85 56 -102 9 -7 17 -22 17 -33 0 -13 4 -18 12 -13 7 4 8 3 4 -5
-4 -6 0 -18 8 -27 9 -9 14 -20 10 -25 -3 -5 2 -12 10 -15 9 -3 16 -11 16 -17
0 -6 7 -18 16 -28 9 -10 17 -29 18 -42 0 -14 6 -23 12 -20 6 2 19 -7 28 -21 9
-15 14 -26 11 -26 -5 0 18 -29 43 -56 7 -8 10 -14 6 -14 -3 0 -1 -7 6 -15 7
-8 10 -22 6 -30 -3 -9 -2 -13 4 -10 6 3 10 -3 10 -14 0 -12 4 -21 10 -21 5 0
9 -3 8 -7 -4 -14 13 -53 22 -53 5 0 6 -7 3 -17 -5 -12 -3 -14 8 -8 12 7 12 6
1 -7 -9 -12 -10 -17 -1 -20 6 -2 12 -16 12 -31 0 -15 3 -30 8 -33 5 -3 9 -16
9 -30 0 -18 4 -23 13 -18 8 5 8 2 -2 -9 -9 -11 -10 -17 -2 -17 6 0 10 -3 10
-7 -1 -5 -1 -26 0 -48 1 -30 4 -36 11 -25 8 12 10 11 11 -7 1 -13 2 -29 3 -35
1 -7 8 -19 16 -26 13 -12 13 -13 0 -6 -13 7 -13 5 -2 -9 8 -9 11 -21 7 -27 -3
-5 -3 -10 2 -10 4 0 9 -19 11 -42 1 -23 6 -45 10 -48 12 -9 34 -52 23 -45 -6
3 -11 1 -11 -4 0 -6 5 -11 11 -11 5 0 7 -5 3 -12 -5 -8 -2 -9 10 -5 9 4 14 3
11 -2 -3 -5 -1 -12 4 -15 5 -3 7 -15 4 -26 -3 -11 0 -20 6 -20 6 0 11 -5 11
-11 0 -5 -4 -7 -10 -4 -6 4 -6 -4 1 -22 6 -15 10 -29 10 -30 -4 -13 1 -23 8
-19 5 3 11 -1 14 -9 4 -9 1 -12 -9 -8 -8 3 -14 -1 -14 -10 0 -8 6 -18 13 -20
10 -4 10 -6 0 -6 -18 -1 -16 -21 1 -21 9 0 12 -7 9 -20 -3 -12 0 -20 6 -20 7
0 9 -4 6 -10 -3 -5 2 -10 11 -10 15 0 16 -2 2 -17 -15 -19 -13 -53 3 -53 12 0
7 -113 -6 -122 -6 -5 -5 -8 3 -8 10 0 10 -5 1 -21 -9 -17 -8 -20 3 -13 10 6
11 5 1 -7 -10 -12 -10 -18 -1 -27 9 -9 9 -12 -3 -12 -8 0 -15 -9 -15 -19 0
-11 4 -19 9 -18 5 1 12 -4 14 -10 3 -7 0 -13 -6 -13 -6 0 -11 -9 -11 -21 0
-11 -4 -18 -9 -15 -4 3 -7 -7 -5 -22 1 -14 -3 -30 -9 -34 -8 -5 -8 -8 -1 -8
14 0 6 -47 -13 -77 -8 -12 -12 -27 -9 -32 4 -5 1 -13 -5 -17 -8 -4 -7 -9 2
-15 11 -7 11 -9 1 -9 -7 0 -10 -4 -7 -10 3 -5 1 -10 -6 -10 -8 0 -7 -5 2 -17
10 -11 10 -14 2 -9 -12 6 -18 -5 -14 -27 0 -4 -6 -7 -15 -7 -8 0 -13 -4 -9 -9
3 -5 -1 -16 -9 -24 -8 -8 -12 -17 -9 -21 4 -3 1 -6 -5 -6 -7 0 -12 -8 -12 -18
0 -10 -4 -22 -10 -28 -8 -8 -17 -37 -19 -67 -1 -5 -5 -6 -9 -3 -4 2 -9 -6 -10
-19 -3 -38 -6 -49 -20 -64 -7 -7 -11 -20 -8 -28 3 -8 1 -11 -4 -8 -6 3 -10 -3
-10 -13 0 -11 -7 -23 -16 -26 -13 -5 -14 -9 -5 -20 9 -11 9 -16 0 -22 -8 -5
-10 -3 -4 7 6 10 5 11 -4 3 -7 -6 -13 -21 -14 -33 -1 -11 -5 -21 -10 -21 -4 0
-5 -4 -2 -10 3 -5 -1 -10 -10 -10 -12 0 -15 -6 -10 -20 4 -11 2 -20 -4 -20 -6
0 -11 -7 -11 -16 0 -8 -4 -13 -9 -10 -10 7 -21 -17 -21 -45 0 -11 -4 -17 -10
-14 -5 3 -10 3 -11 -2 -3 -32 -11 -58 -19 -61 -5 -2 -7 -9 -4 -17 3 -7 0 -16
-6 -20 -9 -6 -9 -10 1 -16 11 -7 11 -9 1 -9 -7 0 -10 -4 -7 -10 3 -5 1 -10 -5
-10 -7 0 -10 -6 -7 -12 2 -7 -3 -19 -12 -26 -9 -8 -11 -11 -5 -8 6 3 11 -1 11
-8 0 -8 -7 -12 -14 -9 -8 3 -13 2 -12 -3 4 -21 -2 -57 -8 -51 -8 8 -47 -73
-44 -91 1 -7 -3 -11 -10 -10 -6 2 -13 -7 -15 -19 -5 -27 -34 -64 -46 -57 -7 5
-12 -18 -9 -38 0 -5 -4 -8 -9 -8 -6 0 -10 -7 -10 -16 0 -8 -4 -12 -10 -9 -5 3
-10 2 -10 -4 0 -5 8 -12 18 -14 12 -3 10 -5 -7 -6 -18 -1 -22 -5 -18 -21 3
-11 1 -20 -5 -20 -6 0 -8 -9 -5 -21 4 -17 3 -18 -9 -8 -12 10 -13 9 -8 -5 3
-9 2 -16 -4 -16 -5 0 -12 -9 -15 -21 -3 -12 -10 -18 -15 -15 -6 3 -8 -2 -5
-14 3 -12 0 -20 -7 -20 -7 0 -10 -7 -6 -15 3 -8 0 -14 -7 -12 -6 1 -13 -8 -15
-20 -2 -12 -12 -25 -23 -28 -15 -5 -17 -10 -9 -20 6 -8 7 -14 1 -17 -5 -1 -11
-12 -13 -23 -1 -11 -8 -24 -14 -30 -17 -15 -25 -45 -12 -45 7 0 3 -7 -8 -15
-10 -8 -16 -15 -12 -15 4 0 -2 -21 -13 -47 -12 -27 -22 -57 -24 -68 -1 -11 -3
-24 -4 -28 0 -5 -5 -5 -11 -2 -6 4 -7 -1 -3 -10 3 -10 0 -21 -8 -26 -11 -7
-11 -9 -1 -9 10 0 9 -4 -2 -16 -9 -8 -14 -19 -11 -24 3 -5 -3 -24 -14 -43 -11
-19 -17 -38 -13 -42 3 -3 1 -9 -5 -13 -6 -4 -13 -22 -16 -40 -3 -18 -11 -40
-19 -49 -11 -14 -11 -15 1 -9 9 6 9 2 -2 -15 -9 -13 -16 -27 -17 -31 0 -5 0
-9 -1 -10 0 -2 -2 -12 -4 -22 -2 -10 -9 -22 -15 -26 -9 -6 -9 -9 -1 -15 9 -5
9 -10 0 -21 -9 -11 -8 -14 2 -14 12 0 12 -2 0 -9 -8 -5 -11 -16 -8 -25 4 -9 2
-16 -2 -16 -5 0 -12 -7 -15 -16 -4 -10 -2 -13 7 -8 9 6 9 4 -1 -8 -14 -17 -13
-39 3 -50 6 -5 6 -8 -1 -8 -10 0 -29 -53 -25 -72 0 -5 -4 -8 -11 -8 -6 0 -8
-3 -5 -6 3 -4 2 -15 -4 -25 -7 -14 -6 -19 3 -19 9 0 9 -3 -2 -10 -8 -5 -11
-12 -7 -16 4 -4 2 -13 -4 -21 -9 -10 -8 -13 0 -13 8 0 6 -6 -4 -16 -9 -9 -14
-23 -11 -31 3 -8 1 -11 -4 -8 -6 3 -10 -1 -10 -10 0 -9 5 -13 11 -9 6 3 3 -5
-6 -20 -10 -14 -13 -26 -8 -26 5 0 9 -9 10 -20 1 -13 -3 -18 -10 -14 -7 3 -5
0 3 -8 12 -9 16 -32 15 -85 0 -48 3 -68 10 -63 7 6 11 2 12 -8 0 -9 3 -35 7
-56 3 -23 1 -45 -5 -52 -8 -10 -6 -12 10 -9 18 3 19 1 8 -16 -10 -16 -9 -21 2
-28 7 -5 11 -13 7 -19 -3 -6 -2 -13 3 -16 5 -4 8 -17 7 -31 -2 -13 1 -22 5
-19 9 5 13 -9 10 -33 -1 -6 6 -17 16 -25 10 -7 19 -19 21 -26 2 -13 38 -52 47
-52 12 1 34 -28 27 -35 -4 -5 0 -6 9 -2 9 3 22 0 28 -6 6 -6 11 -8 11 -4 0 4
10 -1 22 -13 12 -11 28 -20 35 -20 7 0 13 -4 13 -10 0 -5 9 -10 19 -10 11 0
23 -5 26 -10 4 -6 11 -8 16 -5 5 4 9 2 9 -4 0 -5 11 -8 25 -6 14 1 25 -2 25
-7 0 -5 5 -6 11 -2 6 3 27 8 48 9 20 1 42 3 49 4 8 1 10 6 6 13 -5 9 -2 8 10
-1 12 -10 20 -11 28 -3 6 6 17 8 24 5 8 -3 14 -1 14 4 0 5 8 9 18 10 38 2 82
10 89 16 3 4 12 2 20 -4 10 -9 13 -8 13 1 0 8 3 10 7 7 3 -4 12 -2 19 4 8 7
14 7 19 -1 4 -7 11 -8 18 -1 12 9 18 11 38 11 5 0 7 5 4 10 -4 6 -3 10 2 9 22
-4 41 3 61 21 12 12 22 18 22 14 0 -3 12 1 26 11 18 12 24 13 19 4 -3 -8 0 -6
8 3 8 10 16 16 18 13 3 -2 18 7 33 20 28 24 40 29 59 26 5 -1 6 2 4 6 -6 11
13 27 37 31 11 2 26 11 35 21 11 12 14 13 7 1 -5 -8 2 -3 16 11 13 14 29 24
36 21 10 -3 16 9 14 29 -1 4 6 6 16 5 10 0 17 6 16 15 -1 11 5 15 16 12 12 -3
23 3 30 16 6 12 15 19 21 16 5 -4 12 1 15 9 3 9 12 16 20 16 8 0 13 5 12 12
-2 7 3 13 10 14 6 1 17 2 23 3 5 0 8 4 6 9 -3 4 7 16 21 26 14 11 22 14 18 8
-4 -7 9 -1 30 13 20 14 43 25 51 25 8 0 12 4 9 9 -3 4 6 13 19 19 14 7 25 16
25 22 0 6 4 9 9 5 5 -3 12 -1 16 5 4 6 12 7 18 3 9 -5 9 -3 0 8 -10 12 -8 15
10 16 12 1 34 16 49 34 16 17 28 28 28 24 0 -5 10 4 23 18 12 15 27 27 33 27
16 0 64 57 56 66 -4 5 2 2 13 -6 11 -8 17 -11 13 -6 -9 11 60 79 72 71 5 -3 7
4 5 15 -3 14 1 20 13 20 10 0 30 14 45 31 16 18 31 28 38 23 8 -5 10 -2 7 8
-4 10 5 20 28 31 19 9 34 22 34 27 0 6 4 9 9 6 5 -3 8 1 7 9 0 7 2 13 6 12 10
-3 44 45 40 56 -1 5 2 6 7 2 6 -3 15 4 21 15 6 11 15 18 21 15 5 -4 9 -3 9 2
0 4 11 21 25 37 13 16 22 34 18 40 -4 6 2 4 12 -4 10 -8 16 -10 12 -4 -3 6 3
17 14 24 10 8 19 20 19 27 0 7 6 12 13 11 6 -2 11 2 10 9 -2 6 6 15 17 18 10
3 22 15 25 26 4 10 11 19 16 19 6 0 7 4 4 10 -3 5 2 10 11 10 10 0 15 3 11 6
-3 3 6 17 20 30 14 13 22 24 18 24 -4 0 2 9 14 19 13 11 20 25 16 30 -3 6 2
11 12 11 10 0 23 9 28 19 28 55 80 138 97 154 10 10 16 22 13 28 -4 5 -2 9 4
9 5 0 13 10 17 23 3 12 16 35 26 50 11 16 18 31 14 34 -3 3 5 16 19 29 13 12
26 28 27 35 2 8 12 22 23 32 11 10 13 15 5 11 -8 -4 -5 3 8 15 12 12 20 27 16
32 -3 5 0 8 8 7 8 -2 13 6 12 24 -1 18 3 25 12 21 8 -3 16 8 22 29 5 18 14 32
20 31 6 -2 9 3 6 10 -2 7 7 34 21 61 14 26 23 52 19 57 -3 5 1 12 9 15 8 3 17
19 21 35 3 17 13 37 21 45 8 9 13 20 10 25 -4 5 0 9 7 9 9 0 9 3 -2 10 -13 9
-13 10 0 10 8 0 20 11 27 25 6 14 7 22 2 19 -5 -3 -1 10 10 29 11 19 17 38 14
41 -4 3 -1 6 5 6 6 0 9 6 6 14 -3 8 -1 17 5 21 6 3 11 17 11 31 0 16 4 23 11
18 7 -4 7 1 -1 16 -8 15 -8 20 -1 16 6 -4 12 0 12 8 2 25 4 30 12 44 5 7 4 12
-3 12 -7 0 -8 6 0 19 5 11 10 31 10 46 0 14 4 23 10 20 5 -3 9 8 8 28 -1 19 2
39 6 45 4 7 4 12 -1 12 -4 0 -8 47 -8 105 0 87 3 105 15 105 9 0 11 3 5 8 -6
4 -12 20 -13 36 -1 17 -8 33 -15 38 -6 4 -8 8 -3 8 6 0 5 5 -1 11 -6 6 -9 18
-6 25 3 8 0 14 -7 14 -6 0 -8 5 -5 11 4 6 -3 21 -15 34 -16 17 -18 25 -9 30 8
6 10 4 4 -5 -5 -9 -4 -11 4 -6 9 6 9 11 1 21 -7 8 -9 19 -5 25 4 6 1 9 -7 8
-7 -2 -14 7 -16 20 -2 13 -8 20 -14 16 -7 -5 -8 -2 -4 5 5 7 0 21 -10 32 -13
15 -15 22 -6 31 8 8 6 16 -10 30 -12 10 -16 18 -9 18 8 0 7 5 -3 16 -9 8 -14
20 -10 25 3 5 2 9 -3 8 -21 -4 -33 2 -33 16 0 8 -6 14 -12 12 -7 -1 -12 6 -12
15 1 10 -2 15 -7 12 -5 -3 -9 -1 -9 4 0 6 -12 13 -26 16 -17 5 -24 12 -20 21
3 8 1 15 -3 15 -13 0 -71 56 -71 69 0 6 -5 11 -11 11 -5 0 -7 5 -4 10 3 6 -1
13 -9 16 -9 3 -13 10 -10 15 3 5 0 9 -6 9 -6 0 -8 4 -5 10 3 5 1 10 -5 10 -6
0 -8 4 -5 10 3 6 -1 10 -10 10 -10 0 -13 5 -9 12 5 8 1 9 -12 4 -14 -5 -16 -4
-7 5 8 8 1 22 -33 55 -24 24 -49 44 -56 44 -7 0 -22 12 -33 26 -35 46 -52 64
-58 58 -3 -3 -3 4 0 17 4 14 2 20 -5 16 -5 -4 -40 22 -76 58 -36 36 -70 65
-76 65 -5 0 -10 6 -10 13 0 6 -16 25 -35 41 -19 16 -32 34 -28 39 4 6 0 8 -9
4 -22 -8 -30 3 -16 22 7 9 9 13 4 9 -9 -8 -76 61 -76 78 0 7 -9 15 -20 19 -11
3 -19 9 -19 13 3 18 -2 33 -8 29 -5 -3 -14 1 -21 9 -7 8 -9 14 -5 14 4 0 -3
10 -17 21 -14 11 -18 18 -10 14 8 -4 -1 7 -20 24 -19 17 -34 36 -33 41 2 6 -1
10 -7 10 -13 0 -106 90 -94 91 5 0 -2 5 -15 10 -15 6 -21 14 -17 25 3 8 2 12
-4 9 -5 -3 -25 10 -44 30 -19 19 -41 35 -47 35 -7 0 -10 3 -6 6 8 8 -16 33
-25 27 -5 -2 -8 3 -8 12 0 9 -4 13 -10 10 -5 -3 -10 2 -10 11 0 10 -3 15 -6
11 -3 -3 -21 10 -39 29 -18 19 -36 34 -39 34 -3 0 -22 17 -43 38 -21 21 -46
41 -55 45 -10 3 -18 11 -18 18 0 6 -7 8 -16 5 -8 -3 -12 -2 -9 4 7 11 -43 59
-62 60 -7 0 -13 5 -13 11 0 15 -72 78 -90 79 -12 0 -13 2 -1 9 11 7 9 10 -8
16 -11 3 -21 11 -21 17 0 6 -3 9 -6 6 -6 -7 -54 39 -54 51 0 5 -7 12 -16 15
-8 3 -12 11 -9 16 4 6 2 9 -3 8 -11 -3 -82 58 -82 71 0 4 -11 14 -25 21 -13 7
-22 16 -20 20 7 11 -31 51 -40 42 -5 -4 -5 -1 -1 6 8 14 -16 42 -36 42 -10 0
-9 3 2 10 10 6 11 10 3 10 -7 0 -13 7 -13 15 0 9 -7 18 -15 21 -8 3 -17 14
-20 25 -4 11 -11 17 -16 14 -5 -3 -6 1 -3 9 4 11 0 16 -10 16 -9 0 -16 6 -16
14 0 8 -10 23 -23 33 -13 10 -31 32 -42 50 -12 20 -23 29 -33 25 -10 -3 -13
-1 -8 6 4 7 2 12 -3 12 -6 0 -11 7 -11 15 0 8 -4 15 -10 15 -5 0 -10 9 -10 20
0 11 -5 20 -10 20 -6 0 -9 4 -8 9 4 14 -52 72 -62 66 -6 -4 -10 -1 -10 6 0 6
-8 18 -17 26 -11 9 -12 11 -3 7 8 -4 -2 9 -22 28 -20 20 -34 38 -31 42 4 3 -2
6 -12 6 -10 0 -16 3 -12 6 7 8 -17 34 -32 34 -10 0 -15 14 -12 33 0 4 -4 7
-10 7 -5 0 -7 5 -4 10 3 6 2 10 -4 10 -5 0 -8 9 -6 20 2 11 0 18 -6 15 -5 -4
-9 -3 -10 2 -4 39 -12 69 -20 74 -6 3 -11 15 -12 27 0 11 -4 19 -7 17 -3 -2
-12 16 -19 41 -7 24 -17 44 -21 44 -4 0 -10 7 -13 14 -4 11 -1 13 11 9 14 -5
14 -3 -2 9 -12 10 -20 32 -23 64 -3 27 -9 51 -15 52 -5 2 -4 10 3 18 9 11 9
14 0 14 -8 0 -10 11 -7 30 3 20 1 28 -7 23 -6 -4 -8 0 -4 10 3 9 2 19 -3 22
-6 4 -10 23 -10 44 0 20 -6 43 -12 49 -10 10 -10 15 2 22 8 5 10 10 4 10 -15
0 -15 51 0 69 8 12 8 13 -1 7 -8 -4 -13 -2 -13 6 0 8 6 20 13 27 9 11 9 12 0
7 -9 -5 -12 1 -11 18 1 15 7 26 13 26 5 0 3 5 -5 10 -13 8 -13 13 -2 31 8 11
9 18 3 14 -6 -3 -11 1 -11 10 0 9 4 14 8 11 5 -3 9 1 9 9 0 8 -5 15 -11 15 -8
0 -7 3 0 8 10 6 24 81 25 135 0 9 5 17 10 17 6 0 7 6 1 17 -7 12 -5 22 8 35 9
10 16 30 14 43 -1 14 2 25 7 25 6 0 7 5 4 10 -3 6 -2 10 4 10 6 0 8 7 5 15 -4
8 -1 15 6 15 10 0 9 4 0 16 -8 8 -9 14 -4 13 5 -1 16 -1 24 0 12 1 12 3 2 10
-11 6 -8 14 11 35 13 14 28 26 34 26 8 0 12 14 15 57 1 7 5 10 9 8 9 -6 21 24
13 36 -3 5 1 9 9 9 8 0 22 15 32 34 11 19 23 33 27 30 4 -3 8 1 8 9 0 8 7 20
15 27 9 7 14 19 11 26 -3 8 -2 13 2 13 17 -3 35 2 29 7 -6 6 -4 10 38 57 14
16 22 34 19 40 -4 7 -4 9 0 5 7 -6 89 68 84 75 -5 7 86 87 98 87 7 0 14 7 18
15 3 8 9 15 13 14 21 -3 33 2 33 15 0 12 21 27 41 30 3 1 28 15 55 32 27 16
52 31 57 32 12 3 35 26 32 32 -2 3 5 6 15 7 10 1 28 11 40 23 11 11 25 18 30
15 5 -3 11 4 15 15 4 11 11 18 16 15 5 -4 9 -1 9 5 0 6 4 9 9 6 5 -4 11 -2 13
3 1 6 17 13 33 16 37 7 45 10 68 20 9 4 23 5 31 2 7 -3 19 0 26 6 7 7 10 7 7
2 -3 -6 17 -10 54 -9 32 1 59 -3 59 -8 0 -5 5 -6 10 -3 6 3 10 -1 10 -9 0 -9
4 -16 9 -16 4 0 7 -11 5 -25 -1 -17 4 -29 17 -35 10 -6 19 -9 19 -6 0 2 17 -4
37 -14 21 -10 40 -15 43 -12 10 14 30 12 30 -3 0 -8 5 -15 11 -15 5 0 7 6 3
13 -6 9 -5 9 7 0 8 -6 28 -10 44 -8 68 8 96 15 117 27 13 6 30 13 38 14 8 2
20 10 26 18 6 9 17 16 23 16 7 0 9 5 6 10 -3 6 -1 10 5 10 7 0 9 7 6 16 -3 8
-2 13 3 10 9 -6 26 22 23 37 -1 4 3 7 9 7 5 0 8 4 4 9 -3 5 -1 12 5 16 6 4 7
12 0 24 -6 12 -5 22 2 29 9 9 9 12 -1 12 -7 0 -10 4 -7 8 3 5 -1 21 -9 36 -8
14 -10 24 -5 21 14 -8 0 28 -15 40 -7 6 -13 13 -13 18 -1 4 -5 8 -9 8 -5 1
-17 11 -28 23 -13 13 -29 20 -45 18 -19 -3 -22 -1 -13 10 9 10 4 13 -28 12
-26 0 -39 4 -39 13 0 7 -5 13 -11 13 -5 0 -7 -5 -3 -12 5 -8 2 -9 -9 -5 -10 4
-17 1 -17 -6 0 -7 -3 -8 -8 -2 -9 13 -72 13 -73 0 0 -5 -4 -1 -9 10 -5 12 -9
14 -9 6z"/>
<path d="M1955 8030 c-3 -5 -14 -7 -25 -5 -11 2 -26 -2 -34 -10 -7 -8 -16 -11
-20 -8 -3 4 -6 1 -6 -6 0 -7 -6 -11 -12 -8 -7 2 -21 -5 -30 -16 -10 -11 -18
-15 -18 -8 0 8 -5 7 -16 -3 -8 -9 -20 -16 -25 -16 -6 0 -7 -5 -3 -12 5 -7 2
-9 -8 -5 -9 3 -23 -2 -33 -13 -10 -11 -22 -17 -28 -13 -6 3 -7 1 -3 -5 3 -6
-7 -25 -24 -42 -16 -17 -30 -35 -30 -41 0 -6 -6 -7 -12 -3 -7 4 -10 4 -7 0 4
-4 -8 -31 -27 -59 -19 -28 -34 -60 -34 -69 0 -10 -7 -18 -15 -18 -8 0 -14 -3
-14 -7 3 -20 -2 -34 -10 -29 -9 6 -24 -30 -22 -50 1 -7 -11 -23 -27 -36 -16
-13 -26 -30 -24 -37 3 -8 0 -11 -5 -8 -6 4 -9 -4 -7 -18 1 -14 -2 -23 -7 -19
-9 5 -11 0 -13 -28 -1 -7 -6 -19 -13 -25 -6 -7 -10 -26 -9 -42 1 -19 -2 -27
-10 -24 -16 6 -12 -20 6 -43 12 -16 12 -17 0 -6 -16 13 -31 16 -28 5 0 -5 -2
-16 -7 -27 -5 -12 -3 -27 5 -40 12 -19 12 -20 -3 -7 -17 14 -17 13 -42 -56 -2
-7 1 -13 8 -14 7 0 1 -5 -12 -10 -23 -9 -24 -10 -5 -25 10 -9 13 -13 7 -9 -21
10 -36 -5 -22 -21 10 -12 9 -13 -6 -8 -13 5 -16 4 -11 -5 4 -6 2 -19 -6 -28
-9 -12 -9 -15 0 -9 6 4 12 2 12 -3 0 -6 -5 -11 -12 -11 -6 0 -8 -3 -5 -6 3 -4
2 -15 -4 -26 -6 -10 -11 -29 -13 -41 -1 -12 -8 -34 -14 -49 -6 -14 -9 -39 -6
-53 4 -23 2 -26 -13 -21 -9 4 -14 4 -11 0 4 -4 3 -15 -2 -25 -7 -12 -7 -20 0
-24 8 -5 7 -11 -1 -21 -9 -11 -8 -14 2 -14 11 0 12 -2 1 -9 -7 -4 -14 -22 -14
-40 -1 -17 -6 -34 -11 -38 -6 -4 -7 -1 -2 7 6 9 4 11 -4 5 -9 -5 -10 -10 -2
-18 7 -7 7 -16 0 -29 -7 -12 -6 -18 1 -18 7 0 5 -7 -4 -15 -8 -9 -13 -22 -10
-30 4 -8 2 -15 -4 -15 -5 0 -9 -18 -8 -40 0 -22 -3 -40 -8 -40 -5 0 -7 -3 -4
-6 4 -3 3 -18 -2 -34 -5 -18 -4 -32 3 -40 9 -9 9 -11 -2 -8 -9 2 -15 -7 -16
-24 -1 -16 2 -28 7 -28 5 0 6 -6 2 -12 -5 -7 -9 -44 -11 -82 -1 -38 -5 -71 -8
-74 -3 -3 0 -11 6 -19 7 -8 8 -13 1 -13 -14 0 -22 -50 -8 -50 6 0 3 -5 -8 -11
-15 -9 -16 -13 -5 -20 10 -6 10 -9 2 -9 -7 0 -10 -7 -6 -17 4 -9 2 -14 -3 -10
-5 3 -9 -15 -9 -41 0 -26 -7 -58 -15 -72 -10 -16 -11 -22 -2 -17 15 10 16 -5
0 -21 -9 -9 -9 -12 2 -12 9 0 11 -3 5 -8 -5 -4 -10 -19 -11 -34 -3 -83 -4 -89
-16 -82 -10 5 -10 4 -1 -6 8 -9 9 -19 2 -32 -7 -13 -6 -18 2 -18 8 0 9 -4 0
-13 -6 -9 -7 -17 -1 -23 6 -6 4 -19 -4 -36 -12 -23 -12 -28 3 -43 9 -10 11
-15 4 -11 -7 4 -12 -1 -12 -11 0 -34 -9 -128 -15 -153 -3 -14 -1 -27 7 -32 8
-5 8 -8 0 -8 -6 0 -10 -13 -9 -30 1 -16 -2 -30 -7 -30 -4 0 -6 -4 -2 -9 3 -5
1 -12 -5 -16 -6 -3 -8 -17 -6 -31 3 -13 1 -24 -3 -24 -4 0 -7 -14 -6 -30 1
-17 -2 -33 -7 -36 -4 -3 -8 -10 -8 -15 0 -6 6 -7 13 -3 8 5 8 2 -2 -9 -7 -9
-10 -17 -5 -17 4 0 3 -5 -3 -11 -6 -6 -9 -18 -6 -25 3 -8 -1 -14 -8 -14 -11 0
-11 -3 1 -10 8 -5 10 -10 5 -10 -6 0 -12 -17 -13 -37 -2 -21 -7 -55 -11 -75
-5 -21 -6 -38 -2 -38 5 0 6 -126 1 -137 -2 -5 -1 -193 1 -200 1 -5 1 -12 0
-17 -7 -35 -6 -104 1 -100 4 3 5 -2 2 -10 -3 -9 -11 -13 -16 -9 -7 4 -9 -4 -6
-20 3 -17 1 -24 -5 -20 -6 4 -8 0 -4 -11 4 -9 1 -29 -7 -44 -11 -23 -22 -90
-29 -179 -1 -13 -6 -23 -12 -23 -5 0 -3 -5 5 -10 12 -8 12 -10 1 -10 -11 0
-11 -3 0 -17 10 -11 10 -14 2 -9 -9 5 -13 -1 -14 -21 0 -15 -2 -57 -5 -93 -2
-36 -6 -86 -7 -112 -2 -26 -6 -51 -10 -54 -4 -4 -2 -13 5 -21 8 -10 8 -20 -1
-39 -8 -18 -8 -23 0 -18 8 4 8 1 2 -12 -5 -11 -9 -49 -8 -86 1 -38 -3 -68 -7
-68 -4 0 -8 -9 -8 -20 0 -11 4 -20 9 -20 6 0 7 -10 5 -22 -6 -25 -6 -30 -1
-68 2 -14 -1 -28 -7 -32 -8 -6 -8 -8 0 -8 7 0 10 -12 7 -27 -2 -16 -4 -40 -4
-56 0 -17 -4 -25 -11 -21 -7 5 -8 2 -2 -7 13 -21 14 -41 3 -61 -7 -12 -6 -18
1 -18 9 0 9 -13 -3 -65 -2 -5 -6 -15 -10 -22 -4 -6 -1 -14 5 -16 10 -4 10 -6
1 -6 -7 -1 -10 -8 -6 -17 3 -9 0 -20 -8 -25 -8 -5 -9 -9 -3 -9 9 0 11 -17 5
-63 -1 -5 -7 -5 -13 -1 -10 6 -10 4 0 -8 9 -12 10 -18 2 -23 -8 -5 -7 -11 2
-23 10 -12 10 -14 1 -8 -8 4 -13 2 -14 -6 -1 -7 -2 -20 -3 -28 0 -8 3 -18 8
-21 5 -4 5 -13 0 -20 -13 -20 -12 -339 1 -339 5 0 3 -5 -5 -10 -11 -7 -11 -10
-2 -10 7 0 10 -5 7 -10 -3 -6 1 -13 10 -16 13 -5 14 -9 4 -15 -10 -6 -10 -11
2 -25 12 -15 12 -16 0 -9 -11 6 -12 5 -5 -6 11 -18 13 -79 2 -85 -5 -3 -5 -11
-1 -17 11 -19 11 -47 -1 -47 -7 0 -7 -3 1 -8 8 -5 9 -13 3 -22 -5 -8 -5 -21 1
-32 6 -10 7 -23 4 -28 -3 -6 0 -10 7 -10 9 0 9 -3 -2 -10 -14 -9 -7 -14 13
-11 5 1 5 -4 1 -10 -8 -14 -13 -149 -5 -149 8 0 6 -54 -3 -68 -5 -8 -1 -10 11
-5 16 6 16 5 4 -10 -11 -14 -11 -17 0 -17 12 0 12 -2 0 -9 -7 -5 -9 -11 -4
-14 5 -3 9 -33 8 -66 0 -34 3 -61 6 -61 4 0 7 -20 6 -44 0 -29 -4 -43 -11 -39
-6 4 -5 0 1 -8 7 -9 16 -48 19 -88 5 -49 12 -75 21 -78 12 -5 12 -7 1 -14 -11
-7 -11 -9 0 -9 9 0 11 -7 7 -20 -4 -11 -2 -20 4 -20 6 0 8 -6 5 -13 -5 -15 21
-82 35 -92 6 -3 7 -13 4 -22 -4 -11 -3 -14 5 -9 7 4 12 1 12 -8 0 -9 7 -16 16
-16 8 0 13 -4 10 -9 -6 -10 20 -68 29 -63 12 6 26 1 21 -7 -4 -5 16 -32 44
-59 27 -27 47 -52 43 -56 -3 -3 1 -6 10 -6 8 0 19 -9 22 -20 4 -11 10 -18 15
-15 5 3 14 -4 20 -15 6 -12 18 -19 25 -16 8 3 17 -3 20 -15 4 -10 10 -17 14
-15 4 3 25 -7 46 -21 21 -14 35 -21 31 -15 -3 6 12 1 33 -11 22 -12 38 -24 35
-26 -2 -2 4 -10 14 -17 13 -9 19 -9 24 -1 5 8 8 7 8 -4 0 -9 7 -22 15 -29 13
-11 14 -10 9 6 -3 10 3 4 15 -14 18 -28 24 -31 41 -22 18 10 24 7 21 -12 0 -4
6 -5 14 -2 8 4 15 2 15 -4 0 -5 13 -9 29 -8 17 1 28 -1 25 -5 -2 -4 0 -10 6
-14 5 -3 10 0 10 7 0 10 2 10 8 1 4 -7 25 -14 46 -16 21 -2 41 -10 46 -17 6
-10 9 -9 13 1 4 11 6 11 6 1 1 -9 6 -10 20 -3 14 8 25 6 42 -7 16 -11 42 -17
82 -17 31 0 57 -3 57 -8 0 -4 4 -5 10 -2 5 3 10 0 10 -7 0 -10 3 -9 10 2 8 12
10 12 16 -4 5 -14 9 -15 15 -4 5 7 9 8 9 3 0 -6 9 -11 20 -12 12 -1 18 3 14 9
-4 6 3 5 16 -2 15 -8 20 -8 16 -1 -4 6 -3 11 3 11 5 0 11 -5 13 -10 5 -15 113
-18 113 -3 0 6 4 15 9 20 5 4 6 3 2 -4 -7 -13 27 -37 38 -26 3 3 6 2 6 -3 0
-5 11 -11 26 -12 18 -1 23 2 18 11 -6 9 -4 9 8 -1 13 -10 17 -10 21 0 4 10 6
10 6 1 1 -9 8 -10 27 -3 17 7 23 7 19 0 -7 -11 35 -7 54 4 5 4 12 2 15 -3 7
-11 25 -9 45 3 10 7 12 6 6 -4 -6 -10 -4 -11 11 -5 22 9 74 14 191 16 57 1 80
5 76 13 -4 6 0 5 9 -2 12 -10 18 -10 23 -1 6 8 10 7 16 -2 6 -10 9 -10 9 -2 0
6 9 10 20 8 11 -2 20 0 20 5 0 4 15 4 34 0 19 -4 40 -4 47 0 7 5 18 6 25 3 6
-2 15 0 19 6 3 6 15 11 26 11 10 0 19 4 19 8 0 4 23 7 50 7 28 0 50 2 50 5 0
8 44 5 58 -4 7 -4 12 -2 12 6 0 9 3 9 10 -2 7 -11 10 -11 10 -2 0 8 5 10 12 6
15 -9 68 -11 68 -2 0 3 9 4 20 1 11 -3 20 -1 20 5 0 6 9 10 20 9 11 -1 20 -6
20 -12 0 -6 3 -7 8 0 4 6 18 16 31 23 19 11 22 11 16 0 -3 -7 0 -5 7 4 9 10
19 14 28 8 17 -10 42 -1 33 13 -4 6 -1 7 7 2 20 -12 60 -14 60 -3 0 6 11 8 25
4 14 -4 25 -2 25 3 0 6 12 6 30 1 18 -5 32 -5 36 1 3 6 12 8 20 5 7 -3 16 -1
20 5 4 7 10 6 19 -1 9 -8 14 -6 19 5 3 9 11 13 17 9 6 -3 15 0 20 7 6 10 9 10
9 2 0 -7 7 -10 15 -7 8 4 13 9 10 13 -2 4 6 7 18 6 12 -1 27 0 32 4 16 9 35
10 40 1 3 -4 25 -2 49 5 24 8 47 11 50 8 3 -3 8 2 12 11 3 9 15 16 26 16 11 0
16 5 13 10 -4 7 3 9 19 6 15 -3 24 -1 21 5 -4 5 1 9 9 9 8 0 18 5 22 12 5 7 2
9 -7 4 -8 -4 -6 -1 4 7 14 11 15 16 5 20 -7 3 -8 6 -3 6 16 1 5 72 -11 78 -8
3 -14 17 -14 32 0 18 -3 22 -9 13 -7 -11 -9 -11 -14 2 -4 9 -13 16 -22 16 -8
0 -15 6 -15 13 0 7 -3 8 -8 2 -4 -5 -16 -10 -27 -10 -11 0 -23 5 -27 10 -5 6
-8 6 -8 -2 0 -8 -12 -11 -32 -8 -19 2 -36 -1 -40 -8 -6 -9 -8 -9 -8 1 0 7 -5
10 -11 6 -14 -8 -134 -8 -147 0 -6 4 -13 2 -16 -2 -3 -5 -17 -8 -31 -7 -14 2
-25 -1 -25 -6 0 -6 -5 -7 -10 -4 -6 4 -7 11 -4 17 4 7 2 8 -5 4 -6 -4 -9 -11
-6 -16 3 -4 -2 -10 -10 -13 -9 -4 -12 -1 -9 8 4 10 -1 12 -18 8 -13 -4 -26
-11 -30 -17 -6 -8 -8 -8 -8 1 0 6 -9 9 -20 6 -13 -3 -20 0 -20 8 -1 9 -4 8
-11 -4 -6 -10 -15 -14 -22 -10 -16 10 -38 10 -60 0 -12 -5 -19 -3 -23 6 -3 9
-13 13 -25 10 -10 -3 -17 -9 -14 -12 5 -8 -6 -10 -77 -11 -30 -1 -48 -6 -48
-13 0 -8 -3 -8 -8 -2 -8 12 -44 16 -37 5 6 -10 -83 -17 -128 -9 -26 4 -34 2
-30 -7 3 -9 -4 -10 -31 -4 -19 4 -37 5 -40 2 -9 -8 -117 -8 -122 0 -3 5 -10 8
-15 8 -6 0 -8 -3 -5 -8 6 -10 -56 -8 -72 2 -7 4 -12 5 -12 3 0 -3 -16 -1 -35
3 -23 5 -36 4 -39 -4 -2 -6 -5 -3 -5 7 -1 11 -9 17 -27 17 -17 0 -23 4 -18 13
4 6 -3 3 -16 -8 -13 -11 -20 -15 -17 -9 6 11 -27 27 -59 29 -6 0 -23 9 -38 19
-18 11 -25 13 -20 5 6 -11 3 -10 -10 1 -10 8 -27 15 -39 17 -11 2 -26 8 -32
13 -7 5 -15 7 -18 3 -4 -3 -7 -1 -7 5 0 7 -7 12 -15 12 -8 0 -15 5 -15 11 0 5
-4 8 -9 5 -13 -8 -42 4 -35 15 3 5 -2 9 -10 9 -8 0 -25 10 -37 22 -12 13 -19
16 -15 8 4 -8 -2 -4 -14 10 -12 14 -19 18 -15 10 4 -10 2 -9 -8 2 -8 10 -17
15 -20 11 -4 -3 -7 2 -7 12 0 10 -3 16 -6 12 -7 -7 -73 57 -76 75 -4 16 -57
68 -70 68 -5 0 -6 4 -3 10 3 5 -2 19 -13 30 -19 20 -22 45 -9 67 13 21 34 98
31 115 -1 9 4 19 11 22 7 2 16 22 20 43 4 21 11 40 16 44 5 3 10 17 11 32 1
16 7 26 14 23 8 -3 11 6 10 25 -1 17 1 32 6 35 5 3 6 10 3 15 -4 5 -1 9 4 9 6
0 11 9 11 20 0 11 4 20 10 20 5 0 8 16 6 35 -2 29 0 33 13 22 8 -7 12 -7 8 -1
-3 6 1 33 9 60 8 27 13 56 11 64 -2 9 3 22 10 29 8 8 13 24 10 37 -2 13 -1 24
3 24 4 0 11 7 14 16 4 10 2 13 -7 8 -9 -6 -9 -5 0 8 7 8 10 18 6 21 -3 4 -1 7
5 7 6 0 9 7 5 17 -5 12 -3 14 8 8 12 -8 12 -6 0 8 -7 9 -9 17 -4 17 5 0 14 14
20 30 9 23 8 28 0 23 -7 -4 -7 0 1 10 8 9 12 26 10 39 -2 13 4 28 12 35 11 9
12 12 2 13 -8 0 -10 5 -5 12 11 19 12 37 2 43 -5 4 -2 17 7 31 9 13 13 24 9
24 -4 0 -2 7 5 15 7 8 9 15 4 15 -4 0 -3 5 3 11 6 6 9 18 6 27 -4 9 -2 13 4 9
11 -7 29 41 19 50 -3 3 2 12 10 20 8 8 12 18 9 23 -3 5 -1 12 5 15 8 5 7 11
-1 21 -8 10 -8 14 0 14 6 0 11 15 11 33 0 18 6 39 13 46 9 11 9 13 0 7 -7 -4
-13 -3 -13 3 0 5 4 11 9 13 5 1 12 25 15 52 4 27 10 54 13 59 4 6 1 7 -6 2
-10 -6 -11 -3 -2 14 7 11 8 21 4 21 -4 0 -2 5 5 12 14 14 16 32 4 24 -5 -3 -9
1 -9 9 0 8 5 15 10 15 6 0 2 10 -9 22 -10 12 -13 18 -6 14 7 -4 13 -2 14 6 1
14 4 28 8 41 1 4 3 11 4 16 0 5 4 13 8 17 4 4 3 13 -3 20 -7 8 -6 14 2 20 8 5
10 3 4 -7 -5 -8 -4 -11 1 -6 4 4 9 18 9 30 2 33 17 81 28 88 5 4 10 21 11 38
0 17 5 31 10 31 4 0 2 8 -5 17 -10 11 -10 14 -1 9 6 -4 12 -4 13 1 0 4 3 33 5
63 3 30 6 69 8 85 1 17 -2 36 -7 43 -7 9 -5 11 8 6 15 -6 16 -4 7 12 -7 14 -6
24 4 38 7 10 11 23 8 27 -3 5 1 9 8 9 9 0 9 3 -2 10 -13 8 -13 11 -1 19 7 5
11 13 7 19 -3 5 0 12 8 15 14 6 16 44 3 64 -6 9 -3 11 9 6 12 -5 15 -3 9 6 -4
8 -2 17 6 22 11 7 11 9 1 9 -9 0 -10 5 -3 18 7 13 7 22 0 29 -8 8 -7 13 0 17
6 4 11 17 11 28 0 11 8 27 18 34 15 12 15 13 0 8 -16 -6 -20 17 -5 32 10 11 8
46 -2 40 -13 -8 -7 24 6 32 10 7 11 14 14 80 0 20 6 43 12 51 9 12 9 13 0 7
-7 -4 -13 -2 -13 3 0 6 6 11 13 11 8 0 7 4 -3 10 -13 8 -13 11 -1 19 7 5 10
14 7 20 -4 6 -3 11 2 11 5 0 9 7 10 15 1 8 3 22 4 30 1 8 6 15 12 15 6 0 4 5
-4 10 -8 5 -10 10 -4 10 7 0 12 19 13 43 3 63 4 67 13 67 5 0 4 10 -3 21 -8
15 -8 19 0 15 6 -4 11 0 12 11 1 10 2 32 3 48 1 17 5 36 9 43 5 7 3 12 -4 12
-9 0 -9 3 0 14 6 7 11 27 11 42 -1 49 2 69 12 81 6 7 5 14 -2 18 -8 5 -8 11 1
21 9 11 9 14 -1 14 -10 0 -10 3 0 15 7 9 13 32 12 52 -1 20 3 42 9 49 7 8 7
14 -1 19 -5 3 -10 11 -10 16 0 6 3 8 8 5 4 -2 6 12 4 32 -1 21 -2 57 -1 82 0
25 1 91 1 147 1 56 5 100 10 97 4 -3 4 6 -1 19 -10 26 -9 52 2 63 4 4 0 16 -9
25 -16 17 -15 19 0 25 14 5 15 9 4 15 -11 8 -11 10 1 18 10 6 10 10 1 16 -9 6
-9 10 1 16 9 5 10 9 3 9 -8 0 -10 11 -5 33 4 17 6 44 6 60 -1 15 3 27 8 27 5
0 4 6 -2 13 -6 8 -8 17 -4 21 7 6 11 21 16 61 2 12 7 27 12 34 5 10 4 12 -4 7
-8 -5 -10 1 -6 24 3 18 2 29 -4 26 -5 -3 -7 3 -4 14 3 11 10 17 17 13 6 -3 6
0 -1 8 -14 14 -18 63 -5 56 4 -3 7 12 7 34 0 21 -4 39 -8 39 -4 0 -4 8 0 18 5
9 8 60 8 112 0 72 4 98 15 108 13 12 13 13 0 6 -13 -7 -13 -5 -2 8 9 12 10 18
2 23 -8 5 -8 11 1 21 6 8 8 14 4 14 -4 0 -2 7 5 15 11 13 10 14 -4 9 -14 -6
-15 -3 -1 22 17 33 12 42 -12 23 -16 -12 -16 -11 1 8 10 12 16 29 12 38 -3 9
-2 13 4 10 6 -3 10 1 10 10 0 12 -5 15 -17 11 -15 -5 -14 -3 2 10 13 10 16 18
8 21 -8 3 -9 13 -3 34 7 24 6 29 -8 30 -14 0 -14 2 2 8 17 7 17 8 2 24 -11 10
-13 17 -5 17 8 0 9 4 0 13 -8 10 -7 17 1 25 9 9 9 12 -1 12 -11 0 -11 3 0 17
12 14 12 16 0 8 -11 -6 -13 -4 -8 7 3 9 3 19 0 22 -3 3 -6 28 -6 56 1 31 -4
50 -11 50 -6 0 -4 5 4 10 8 5 10 10 3 10 -6 0 -9 9 -5 22 4 16 2 19 -8 13 -10
-6 -11 -4 -4 6 12 19 14 40 4 34 -13 -8 -18 18 -8 39 7 13 7 16 -1 12 -15 -10
-14 7 2 23 9 10 9 12 0 7 -9 -5 -11 2 -8 24 2 16 0 32 -4 34 -4 3 -6 19 -3 37
3 18 1 29 -4 26 -5 -3 -9 15 -9 39 0 29 -4 44 -12 44 -7 0 -13 8 -13 18 0 10
-6 24 -12 31 -10 10 -10 12 -1 7 9 -5 12 2 10 23 -1 16 -5 27 -9 24 -5 -2 -8
5 -8 16 0 12 -5 21 -11 21 -6 0 -8 7 -5 15 3 9 -1 18 -9 21 -8 4 -15 15 -15
25 0 10 -4 19 -10 19 -5 0 -10 9 -10 20 0 11 -4 20 -10 20 -5 0 -10 14 -10 31
0 17 -4 28 -10 24 -5 -3 -10 3 -10 14 0 10 -5 21 -11 23 -6 2 -12 15 -12 30
-1 14 -4 25 -7 24 -3 -2 -13 5 -22 16 -10 10 -15 18 -12 18 4 0 -10 16 -30 35
-21 19 -40 35 -44 35 -3 0 -16 11 -27 23 -26 30 -65 52 -88 48 -9 -1 -20 5
-23 13 -3 9 -13 16 -20 16 -8 0 -17 7 -20 15 -4 8 -14 15 -24 15 -10 0 -20 5
-22 11 -2 5 -11 11 -21 13 -9 1 -26 12 -37 24 -23 24 -36 29 -24 10 5 -7 -8
-1 -27 13 -33 25 -100 48 -146 52 -13 1 -23 4 -23 8 0 11 -29 19 -35 9z m-45
-7330 c0 -5 -5 -10 -11 -10 -5 0 -7 5 -4 10 3 6 8 10 11 10 2 0 4 -4 4 -10z
m-60 -16 c0 -8 -19 -13 -24 -6 -3 5 1 9 9 9 8 0 15 -2 15 -3z m185 -24 c3 -6
-1 -7 -9 -4 -18 7 -21 14 -7 14 6 0 13 -4 16 -10z"/>
</g>
</svg>
